<svg fill="none" height="87" viewBox="0 0 71 87" width="71" xmlns="http://www.w3.org/2000/svg"><g fill="#363636"><path d="m53.349 1.49c0-.736-.578-1.49-1.311-1.49h-42.985c-.733 0-1.381.754-1.381 1.49v3.522h45.676v-3.522z"/><path d="m54.202 81.809h-9.597v-10.383h-6.958v2.507h-18.873c-.537-1.254-1.757-2.148-3.181-2.148h-12.034c-1.917-.001-3.559 1.602-3.559 3.526v3.018c0 1.924 1.642 3.48 3.559 3.48h12.035c1.511 0 2.792-.896 3.269-2.326h18.785v2.326h-9.518c-.533 0-1.01.437-1.01.972v3.172c0 .535.478 1.048 1.01 1.048h26.072c.533 0 .93-.513.93-1.048v-3.173c0-.535-.397-.971-.93-.971z"/><path d="m60.666 12.39c-.861-2.93697-3.567-5.04997-6.771-5.04997h-46.747c-3.898 0-7.148 3.10897-7.148 7.02097v46.9c0 3.912 3.25 7.121 7.148 7.121h46.747c3.898 0 7.126-3.209 7.126-7.121v-10.346c6.066-4.204 10.001-11.211 10.001-19.164-.001-8.079-4.132-15.181-10.356-19.361zm-48.428 49.761c-3.259 0-5.901-2.65-5.901-5.921 0-3.27 2.642-5.922 5.901-5.922s5.902 2.652 5.902 5.922c0 3.271-2.643 5.921-5.902 5.921zm5.961-32.605c0 .786-.635 1.422-1.418 1.422h-8.94c-.783 0-1.418-.637-1.418-1.422v-14.16c0-.786.635-1.423 1.418-1.423h8.939c.783 0 1.418.637 1.418 1.423v14.16zm29.563 22.312c-11.076 0-20.057-9.01-20.057-20.123s8.98-20.124 20.057-20.124 20.058 9.01 20.058 20.124-8.981 20.123-20.058 20.123z"/><path d="m47.762 43.964c6.7312 0 12.188-5.4751 12.188-12.229s-5.4568-12.229-12.188-12.229c-6.7313 0-12.188 5.4751-12.188 12.229s5.4567 12.229 12.188 12.229z"/><path d="m31.562 33.171c.7925 0 1.435-.6424 1.435-1.435 0-.7925-.6425-1.435-1.435-1.435-.7926 0-1.435.6425-1.435 1.435 0 .7926.6424 1.435 1.435 1.435z"/><path d="m63.963 33.171c.7925 0 1.435-.6424 1.435-1.435 0-.7925-.6425-1.435-1.435-1.435-.7926 0-1.435.6425-1.435 1.435 0 .7926.6424 1.435 1.435 1.435z"/><path d="m39.109 19.429c.7925 0 1.4349-.6425 1.4349-1.435s-.6424-1.435-1.4349-1.435c-.7926 0-1.435.6425-1.435 1.435s.6424 1.435 1.435 1.435z"/><path d="m56.415 46.912c.7898 0 1.43-.6429 1.43-1.436s-.6402-1.436-1.43-1.436-1.43.6429-1.43 1.436.6402 1.436 1.43 1.436z"/><path d="m55.697 19c.7925 0 1.435-.6425 1.435-1.435s-.6425-1.435-1.435-1.435c-.7926 0-1.435.6425-1.435 1.435s.6424 1.435 1.435 1.435z"/><path d="m39.8279 47.341c.7926 0 1.435-.6425 1.435-1.435s-.6424-1.435-1.435-1.435c-.7925 0-1.435.6425-1.435 1.435s.6425 1.435 1.435 1.435z"/></g></svg>