<svg fill="none" height="69" viewBox="0 0 132 69" width="132" xmlns="http://www.w3.org/2000/svg"><g fill="#363636"><path d="m12.0523.257888c-5.54492.4873-10.21392 1.592812-11.477025 2.672412-.7227.6162-.7227.6162-.2324 1.1562.6445.7197 3.713405 1.64498 7.247605 2.23628 3.99802.668 12.50982.69342 13.72312.05132 1.2119-.668 1.624-1.41365 1.624-2.98145 0-1.6187-.6191-2.415986-2.2178-2.852486-1.4458-.385901-5.7783-.54017592-8.6675-.282276z"/><path d="m25.7744.488258c-.1294.283196-.2583 2.107912-.2583 4.111812 0 4.061.1553 3.77831-2.1919 3.93311l-1.0308.0771-.1294 2.54442-.1289 2.5439-1.1865.2832c-2.5791.668-3.999 2.5952-3.7915 5.2944.1279 1.9272 1.0308 3.3408 2.5786 4.0869 1.1089.5132 1.4697.5381 11.2461.5381 5.5449 0 10.1372.0786 10.1885.1807.0508.1284-1.1094 9.4072-2.5796 20.6387-1.4448 11.2305-2.6831 20.9971-2.7085 21.666-.0513 1.6172.8262 2.6211 2.3477 2.6211 1.2373 0 2.0117-.6416 2.3213-1.9014.1294-.5137 1.4956-10.333 3.0181-21.8213 1.522-11.4629 2.8628-20.8687 2.9404-20.8687.103 0 1.083 1.4131 2.1924 3.1357 2.9399 4.626 2.3989 4.3169 7.6353 4.3169h4.3584v2.8022 2.8276l-5.1328.0771c-4.7202.0771-5.21.127-5.8813.6152-1.5728 1.1572-1.625 1.415-1.625 10.9766 0 9.5342.0264 9.792 1.5225 11.0498l.8511.6953h15.6826 15.6826l.8506-.6953c1.4961-1.2578 1.5205-1.5156 1.5205-11.0498 0-9.5615-.0508-9.8193-1.623-10.9766-.6709-.4883-1.1611-.5381-5.8818-.6152l-5.1318-.0771v-2.8276-2.8022h4.3594c5.2344 0 4.6934.3091 7.6338-4.3169 1.1104-1.7227 2.0898-3.1357 2.1934-3.1357.0762 0 1.4189 9.4058 2.9395 20.8687 1.5225 11.4883 2.8896 21.3076 3.0186 21.8213.3096 1.2598 1.082 1.9014 2.3213 1.9014 1.5215 0 2.3994-1.0039 2.3467-2.6211-.0254-.6689-1.2637-10.4355-2.709-21.666-1.4688-11.2314-2.6309-20.5103-2.5781-20.6387.0508-.1021 4.6416-.1807 10.1894-.1807 9.775 0 10.136-.0249 11.244-.5381 1.548-.7461 2.45-2.1597 2.579-4.0869.207-2.6992-1.211-4.6265-3.791-5.2944l-1.187-.2832-.127-2.5439-.129-2.54442-1.032-.0771c-2.347-.1548-2.194.12789-2.194-3.93311 0-2.0039-.128-3.828616-.257-4.111812-.206-.359901-.543-.48828089-1.367-.48828089-.619 0-1.238.12838789-1.42.30859389-.206.205597-.309 1.465329-.309 3.932129 0 2.4673-.103 3.72708-.31 3.93208-.18.1797-.901.3081-1.649.3081-1.6262 0-1.6516.0522-1.6516 3.11042v2.2871h-33.5317-33.5322v-2.2871c0-3.05812-.0249-3.11042-1.6499-3.11042-.7485 0-1.4702-.1284-1.6504-.3081-.2075-.2051-.3101-1.46478-.3101-3.93208 0-2.4668-.103-3.726631-.3096-3.932129-.1807-.180206-.8003-.30859389-1.4189-.30859389-.8247 0-1.1602.12847889-1.3672.48828089zm42.8428 40.120142c2.8887.8984 5.3916 3.3926 6.166 6.168.4385 1.543.3096 4.2158-.2842 5.7832-.6963 1.875-2.6846 4.0098-4.5654 4.9355-1.29.6416-1.7539.7188-3.9209.7188-2.1665 0-2.6309-.0771-3.9204-.7188-1.8843-.9258-3.8691-3.0605-4.5659-4.9355-.5928-1.5674-.7227-4.2402-.2837-5.7832.748-2.7236 3.2495-5.2695 6.0615-6.168 2.0122-.6425 3.3003-.6425 5.313 0z"/><path d="m63.7941 44.4375c-2.0366.9258-3.5068 3.6494-3.0688 5.7305.7739 3.6768 4.8232 5.5527 7.9956 3.7021 1.9854-1.1582 2.9912-3.5469 2.4512-5.7832-.5684-2.3906-2.7344-4.1377-5.1592-4.1377-.6455.0001-1.6255.2315-2.2188.4883z"/><path d="m36.0918.154258c-3.9204.668-4.5132 1.130902-4.5132 3.443802 0 1.8247.4639 2.41601 2.2681 2.95561 1.5498.4624 7.1724.51417 10.5.12837 6.8608-.8223 11.3218-2.5444 9.6987-3.752-1.2651-.8999-4.9023-1.87649-9.0542-2.390089-2.4756-.308-7.9961-.53999296-8.8994-.385693z"/><path d="m89.4844.257861c-6.3193.5903-11.8643 2.081089-11.8643 3.185989 0 1.7222 7.8408 3.4697 15.6299 3.4956 5.8037 0 7.196-.64211 7.196-3.34131 0-1.8242-.6188-2.62158-2.3727-3.08398-1.6495-.4116-5.6749-.51419862-8.5889-.256299z"/><path d="m112.777.283252c-1.781.231-3.019.770518-3.431 1.490718-.387.7705-.31 2.90378.154 3.57178.928 1.311 1.652 1.46529 7.069 1.46529 3.661 0 5.801-.12889 7.866-.48829 3.534-.5913 6.603-1.51658 7.248-2.23628.49-.54.49-.54-.233-1.1562-1.34-1.1309-5.958-2.185109-11.916-2.672409-3.481-.2831996-4.488-.2832092-6.757.025391z"/></g></svg>