<svg fill="none" height="188" viewBox="0 0 156 188" width="156" xmlns="http://www.w3.org/2000/svg"><g fill="#fff"><path d="m141.25 83.627c8.146 0 14.75-6.6038 14.75-14.75s-6.604-14.75-14.75-14.75-14.75 6.6038-14.75 14.75 6.604 14.75 14.75 14.75z"/><path d="m89.1131 139.544-7.074 17.875-22.824 14.917c-2.168 1.232-3.634 3.559-3.634 6.23 0 3.958 3.208 7.167 7.167 7.167 1.535 0 2.955-.487 4.121-1.31 3.761-2.371 22.351-14.084 25.495-15.88 3.5-2 4.125-5.125 4.125-5.125l4.8749-16s0 0-5.7499-2.625c-5.75-2.625-6.501-5.249-6.501-5.249z"/><path d="m139.321 141.462s-1.158-3.834-4.579-5.167-18.087-7.75-18.087-7.75l15.416-25.584s3.834-9-.333-13.417-13.75-9.75-13.75-9.75h-7.521l15.799-26.801c3.354-5.686 1.443-13.081-4.242-16.432l-49.3909-29.114c-5.686-3.352-13.079-1.442-16.431 4.244l-47.05804 79.828c-3.351 5.685-1.442 13.08 4.24404 16.432l49.39 29.113c5.686 3.352 13.081 1.441 16.432-4.242l22.9339-38.903h8.096l-14.7499 26.209s-5.134 9.214-.334 14.25c4.209 4.416 12.6669 6.916 12.6669 6.916l17.25 6.501 5.101 31.291.009-.001c.549 3.413 3.499 6.023 7.067 6.023 3.958 0 7.166-3.209 7.166-7.167 0-.189-.014-.375-.028-.56l.028-.004zm-121.3629-41.264c-1.401-.826-1.887-2.708-1.061-4.108l47.059-79.829c.826-1.401 2.707-1.888 4.107-1.062l11.521 6.792-50.104 84.998zm53.498 28.054c-.826 1.4-2.707 1.887-4.107 1.061l-30.116-17.754 50.107-84.996 30.1129 17.753c1.402.826 1.887 2.707 1.062 4.107l-18.493 31.372h-8.7829l-19.916 14.427c-.442.252-.853.553-1.23.891l-.031.022.002.003c-1.445 1.312-2.358 3.198-2.358 5.304 0 3.958 3.208 7.167 7.167 7.167 1.548 0 2.978-.496 4.149-1.331l.002.003.071-.058c.182-.133.356-.273.524-.423l9.66-7.784z"/></g><path d="m49.2189 5.94302-47.05799 79.82898c-3.351 5.685-1.442003 13.08 4.244 16.432l49.38999 29.113c5.686 3.352 13.081 1.441 16.432-4.242l47.0571-79.829c3.354-5.686 1.443-13.081-4.242-16.432l-49.3921-29.11398c-5.685-3.352-13.079-1.441997-16.431 4.243zm-39.30499 84.39998 47.05899-79.829c.826-1.40098 2.707-1.88798 4.107-1.06198l11.521 6.79198-50.105 84.998-11.522-6.791c-1.39999-.826-1.88599-2.708-1.05999-4.108zm101.61709-47.667-47.0591 79.829c-.826 1.4-2.707 1.887-4.107 1.061l-30.116-17.754 50.106-84.996 30.1131 17.753c1.403.825 1.887 2.706 1.063 4.107z" fill="#f0c42e"/><path d="m135.25 77.833c8.146 0 14.75-6.6038 14.75-14.75s-6.604-14.75-14.75-14.75-14.75 6.6038-14.75 14.75 6.604 14.75 14.75 14.75z" fill="#3a3a3a"/><path d="m81.875 133.75-7.074 17.875-22.825 14.917c-2.168 1.232-3.634 3.559-3.634 6.23 0 3.958 3.208 7.167 7.167 7.167 1.535 0 2.955-.487 4.121-1.31 3.761-2.371 22.351-14.084 25.495-15.88 3.5-2 4.125-5.125 4.125-5.125l4.875-16s0 0-5.75-2.625-6.5-5.249-6.5-5.249z" fill="#3a3a3a"/><path d="m132.083 135.668s-1.158-3.834-4.579-5.167-18.087-7.75-18.087-7.75l15.416-25.584s3.834-9-.333-13.417-13.75-9.75-13.75-9.75h-26.75l-19.915 14.427c-.442.253-.853.553-1.23.891l-.031.022.002.003c-1.445 1.311-2.358 3.198-2.358 5.303 0 3.958 3.208 7.167 7.167 7.167 1.548 0 2.978-.496 4.149-1.331l.002.003.071-.058c.182-.133.357-.273.525-.423l14.743-11.881h15.875l-14.75 26.209s-5.134 9.214-.334 14.25c4.209 4.416 12.667 6.916 12.667 6.916l17.25 6.501 5.101 31.291.009-.001c.549 3.413 3.499 6.023 7.067 6.023 3.958 0 7.166-3.209 7.166-7.167 0-.189-.014-.375-.028-.56l.028-.004z" fill="#3a3a3a"/></svg>