<svg fill="none" height="35" viewBox="0 0 163 35" width="163" xmlns="http://www.w3.org/2000/svg"><path clip-rule="evenodd" d="m-.151001.702054v33.600046h13.532001c2.1814.0533 4.3499-.3481 6.3677-1.1786s3.8405-2.072 5.3523-3.6454c1.5496-1.5773 2.7655-3.4507 3.5751-5.5084.8096-2.0576 1.1963-4.2573 1.1369-6.4676.0594-2.2104-.3273-4.4101-1.1369-6.4677-.8096-2.05765-2.0255-3.93104-3.5751-5.50835-1.5119-1.57329-3.3347-2.81469-5.3524-3.6452-2.0178-.83051-4.1863-1.231955-6.3676-1.178796zm7.733001 26.208046v-18.81905h5.8c1.2025-.0479 2.4018.15577 3.521.59796 1.1193.4422 2.1339 1.1132 2.979 1.97009.8484.9176 1.5055 1.9951 1.9329 3.1695.4273 1.1744.6164 2.4222.5561 3.6705.0603 1.2483-.1287 2.4961-.5561 3.6705-.4273 1.1744-1.0844 2.2519-1.9329 3.1695-.8449.857-1.8595 1.5281-2.9788 1.9703-1.1193.4423-2.3187.6458-3.5212.5977h-5.8zm34.8-5.952h12.082v-7.3h-12.086v-5.56705h13.291v-7.388996h-21.024v33.600046h21.265v-7.392h-13.532v-5.952zm36.343 13.344 11.019-33.600046h-8.458l-7.491 24.720046-7.491-24.720046h-8.457l11.019 33.600046zm14.4 0h7.733v-33.600046h-7.733zm38.615-1.416c2.493-1.3121 4.581-3.2785 6.041-5.688l-6.67-3.84c-.73 1.3009-1.832 2.354-3.165 3.024-1.441.7442-3.043 1.122-4.664 1.1-1.32.0628-2.639-.1478-3.874-.6186s-2.36-1.1917-3.303-2.1174c-.91-.9669-1.616-2.1067-2.077-3.3518-.46-1.2451-.666-2.5701-.605-3.8962-.061-1.3262.145-2.6512.605-3.8963.461-1.2451 1.167-2.3849 2.077-3.3517.943-.92582 2.068-1.64671 3.303-2.11752s2.554-.68139 3.874-.61853c1.611-.02301 3.204.34773 4.639 1.08 1.342.67781 2.452 1.73865 3.19 3.04805l6.67-3.84005c-1.487-2.40453-3.59-4.36821-6.09-5.688-2.582-1.39309-5.475-2.1113055-8.409-2.0879956-9.779-.2720004-17.797 7.6909956-17.591 17.4720456-.208 9.781 7.809 17.747 17.588 17.476 2.95.0272 5.859-.691 8.458-2.088zm17.881-11.928h12.082v-7.3h-12.085v-5.56705h13.29v-7.388996h-21.023v33.600046h21.265v-7.392h-13.532v-5.952z" fill="#f0c52e" fill-rule="evenodd"/></svg>